<svg xmlns="http://www.w3.org/2000/svg" viewBox="0 0 14.83 14.83"><title>instagram</title><path d="M879.5,19.35c2,0,2.21,0,3,0a4.1,4.1,0,0,1,1.38.26,2.46,2.46,0,0,1,1.41,1.41,4.1,4.1,0,0,1,.26,1.38c0,0.78,0,1,0,3s0,2.21,0,3a4.1,4.1,0,0,1-.26,1.38,2.46,2.46,0,0,1-1.41,1.41,4.1,4.1,0,0,1-1.38.26c-0.78,0-1,0-3,0s-2.21,0-3,0a4.1,4.1,0,0,1-1.38-.26,2.46,2.46,0,0,1-1.41-1.41,4.1,4.1,0,0,1-.26-1.38c0-.78,0-1,0-3s0-2.21,0-3a4.1,4.1,0,0,1,.26-1.38,2.46,2.46,0,0,1,1.41-1.41,4.1,4.1,0,0,1,1.38-.26c0.78,0,1,0,3,0m0-1.34c-2,0-2.27,0-3.06,0a5.44,5.44,0,0,0-1.8.34,3.79,3.79,0,0,0-2.17,2.17,5.44,5.44,0,0,0-.34,1.8c0,0.79,0,1,0,3.06s0,2.27,0,3.06a5.44,5.44,0,0,0,.34,1.8,3.79,3.79,0,0,0,2.17,2.17,5.44,5.44,0,0,0,1.8.34c0.79,0,1,0,3.06,0s2.27,0,3.06,0a5.44,5.44,0,0,0,1.8-.34,3.79,3.79,0,0,0,2.17-2.17,5.44,5.44,0,0,0,.34-1.8c0-.79,0-1,0-3.06s0-2.27,0-3.06a5.44,5.44,0,0,0-.34-1.8,3.79,3.79,0,0,0-2.17-2.17,5.44,5.44,0,0,0-1.8-.34c-0.79,0-1,0-3.06,0h0Z" transform="translate(-872.09 -18.02)"/><path d="M879.5,21.62a3.81,3.81,0,1,0,3.81,3.81,3.81,3.81,0,0,0-3.81-3.81h0Zm0,6.28A2.47,2.47,0,1,1,882,25.43a2.47,2.47,0,0,1-2.47,2.47h0Z" transform="translate(-872.09 -18.02)"/><path d="M884.35,21.47a0.89,0.89,0,1,1-.89-0.89,0.89,0.89,0,0,1,.89.89h0Z" transform="translate(-872.09 -18.02)"/></svg>