<svg xmlns="http://www.w3.org/2000/svg" viewBox="0 0 16.5 14.42"><title>youtube</title><path d="M943.54,21.33a4.41,4.41,0,0,0-.82-2,2.93,2.93,0,0,0-2.05-.87c-2.87-.21-3.17-0.21-3.17-0.21h0s-4.3,0-7.17.21a2.94,2.94,0,0,0-2.05.87,4.39,4.39,0,0,0-.81,2,31.18,31.18,0,0,0-.2,3.32v1.55a31.27,31.27,0,0,0,.2,3.32,4.44,4.44,0,0,0,.81,2,3.49,3.49,0,0,0,2.26.88c1.64,0.16,7,.2,7,0.2s0.31,0,3.17-.21a2.93,2.93,0,0,0,2.05-.87,4.41,4.41,0,0,0,.82-2,31.18,31.18,0,0,0,.2-3.32V24.65a31.88,31.88,0,0,0-.21-3.32h0Zm-10.16,6.76V22.33l5.54,2.89Z" transform="translate(-927.25 -18.22)"/></svg>