<svg id="Layer_1" data-name="Layer 1" xmlns="http://www.w3.org/2000/svg" viewBox="0 0 141.75 141.74"><defs><style>.cls-1{fill:#62bf81;}.cls-2{fill:#aed585;}</style></defs><title>bullet</title><path class="cls-1" d="M343.35,301.08h-1a141.59,141.59,0,0,1-13.66,23.46,49.56,49.56,0,1,1-32.76,32.73,141.59,141.59,0,0,1-23.44,13.6v1.08a70.87,70.87,0,1,0,70.87-70.87h0Z" transform="translate(-272.48 -301.08)"/><path class="cls-2" d="M328.69,324.54a141.59,141.59,0,0,0,13.63-23.43,70.84,70.84,0,0,0-69.84,69.76,141.59,141.59,0,0,0,23.44-13.6A49.72,49.72,0,0,1,328.69,324.54Z" transform="translate(-272.48 -301.08)"/></svg>