<svg xmlns="http://www.w3.org/2000/svg" xmlns:xlink="http://www.w3.org/1999/xlink" viewBox="0 0 455.47 455.62"><defs><style>.a,.h,.i{fill:none;}.b{fill:#62bf81;}.c{fill:#aed585;}.d{fill:#faa838;}.e{fill:#ffc907;}.f{fill:#4dadd6;}.g{fill:#74c4e6;}.h,.i{stroke-miterlimit:10;stroke-width:20px;}.h{stroke:url(#a);}.i{stroke:url(#b);}.j{fill:#cdcccc;}.k{fill:#e6e6e5;}</style><linearGradient id="a" x1="451.63" y1="1007.51" x2="451.63" y2="1007.51" gradientUnits="userSpaceOnUse"><stop offset="0" stop-color="#75c4e6"/><stop offset="1" stop-color="#4dadd6"/></linearGradient><linearGradient id="b" x1="284.13" y1="840.01" x2="284.13" y2="840.01" xlink:href="#a"/></defs><title>icon-openredu-2017</title><path class="a" d="M397.26,1093.94A49.57,49.57,0,1,0,430,1061.22,142.54,142.54,0,0,1,397.26,1093.94Z" transform="translate(-101.31 -736.68)"/><path class="b" d="M444.66,1037.76l-1,0A141.59,141.59,0,0,1,430,1061.22a49.56,49.56,0,1,1-32.76,32.73,141.58,141.58,0,0,1-23.44,13.6c0,0.36,0,.72,0,1.08A70.87,70.87,0,1,0,444.66,1037.76Z" transform="translate(-101.31 -736.68)"/><path class="b" d="M430,1061.22a141.59,141.59,0,0,0,13.63-23.43,70.84,70.84,0,0,0-69.84,69.76,141.58,141.58,0,0,0,23.44-13.6A49.72,49.72,0,0,1,430,1061.22Z" transform="translate(-101.31 -736.68)"/><path class="c" d="M430,1061.22a141.59,141.59,0,0,0,13.63-23.43,70.84,70.84,0,0,0-69.84,69.76,141.58,141.58,0,0,0,23.44-13.6A49.72,49.72,0,0,1,430,1061.22Z" transform="translate(-101.31 -736.68)"/><path class="a" d="M129.82,1078.92a85,85,0,0,0,160.43,39.33,141.86,141.86,0,0,1-115-114.6A85,85,0,0,0,129.82,1078.92Z" transform="translate(-101.31 -736.68)"/><path class="d" d="M290.26,1118.24a85,85,0,1,1-115-114.6,142.57,142.57,0,0,1-2.2-25c0-1.77,0-3.52.11-5.27a113.4,113.4,0,1,0,147.1,146.89c-1.82.07-3.64,0.12-5.48,0.12A142.6,142.6,0,0,1,290.26,1118.24Z" transform="translate(-101.31 -736.68)"/><path class="d" d="M214.7,965.53a113.09,113.09,0,0,0-41.49,7.83c-0.06,1.75-.11,3.51-0.11,5.27a142.57,142.57,0,0,0,2.2,25,85,85,0,0,1,115,114.6,142.6,142.6,0,0,0,24.57,2.13c1.84,0,3.66,0,5.48-.12A113.45,113.45,0,0,0,214.7,965.53Z" transform="translate(-101.31 -736.68)"/><path class="e" d="M214.7,965.53a113.09,113.09,0,0,0-41.49,7.83c-0.06,1.75-.11,3.51-0.11,5.27a142.57,142.57,0,0,0,2.2,25,85,85,0,0,1,115,114.6,142.6,142.6,0,0,0,24.57,2.13c1.84,0,3.66,0,5.48-.12A113.45,113.45,0,0,0,214.7,965.53Z" transform="translate(-101.31 -736.68)"/><path class="a" d="M456.5,976.25A106.31,106.31,0,1,0,317.19,836.44,141.72,141.72,0,0,1,456.5,976.25Z" transform="translate(-101.31 -736.68)"/><path class="f" d="M556.78,878.41a141.75,141.75,0,0,0-278.51-37.24,141.91,141.91,0,0,1,36.53-4.76c0.8,0,1.6,0,2.4,0A106.31,106.31,0,1,1,456.5,976.25c0,0.63,0,1.26,0,1.89a141.88,141.88,0,0,1-5,37.24A141.79,141.79,0,0,0,556.78,878.41Z" transform="translate(-101.31 -736.68)"/><path class="f" d="M456.5,976.25A106.35,106.35,0,0,1,317.19,836.44c-0.8,0-1.6,0-2.4,0a141.91,141.91,0,0,0-36.53,4.76,141.82,141.82,0,0,0,173.31,174.21,141.88,141.88,0,0,0,5-37.24C456.53,977.51,456.51,976.88,456.5,976.25Z" transform="translate(-101.31 -736.68)"/><path class="g" d="M456.5,976.25A106.35,106.35,0,0,1,317.19,836.44c-0.8,0-1.6,0-2.4,0a141.91,141.91,0,0,0-36.53,4.76,141.82,141.82,0,0,0,173.31,174.21,141.88,141.88,0,0,0,5-37.24C456.53,977.51,456.51,976.88,456.5,976.25Z" transform="translate(-101.31 -736.68)"/><path class="h" d="M451.63,1007.51" transform="translate(-101.31 -736.68)"/><path class="i" d="M284.13,840" transform="translate(-101.31 -736.68)"/><path class="a" d="M214.41,843a35.43,35.43,0,0,0-21.59,63.52,142.43,142.43,0,0,1,49.63-49.73A35.37,35.37,0,0,0,214.41,843Z" transform="translate(-101.31 -736.68)"/><path class="j" d="M179,878.42a35.43,35.43,0,0,1,63.48-21.64,141.17,141.17,0,0,1,19.47-9.65,56.69,56.69,0,1,0-78.56,78.49,141.18,141.18,0,0,1,9.45-19.11A35.37,35.37,0,0,1,179,878.42Z" transform="translate(-101.31 -736.68)"/><path class="k" d="M271.26,878.29a56.41,56.41,0,0,0-9.34-31.17,141.17,141.17,0,0,0-19.47,9.65,35.42,35.42,0,0,1-49.63,49.73,141.18,141.18,0,0,0-9.45,19.11A56.69,56.69,0,0,0,271.26,878.29Z" transform="translate(-101.31 -736.68)"/></svg>