<svg xmlns="http://www.w3.org/2000/svg" xmlns:xlink="http://www.w3.org/1999/xlink" viewBox="0 0 100.12 168.85"><defs><style>.a,.h,.i{fill:none;}.b{fill:#63c082;}.c{fill:#aed585;}.d{fill:#faa93a;}.e{fill:#ffca0b;}.f{fill:#4dadd6;}.g{fill:#75c5e6;}.h,.i{stroke-miterlimit:10;stroke-width:20px;}.h{stroke:url(#a);}.i{stroke:url(#b);}.j{fill:#cecccc;}.k{fill:#e6e6e5;}</style><linearGradient id="a" x1="1957.52" y1="-1210.66" x2="1957.52" y2="-1210.66" gradientTransform="matrix(1, 0, 0, -1, -101.31, -139.96)" gradientUnits="userSpaceOnUse"><stop offset="0" stop-color="#76c5e6"/><stop offset="1" stop-color="#4dadd6"/></linearGradient><linearGradient id="b" x1="1922.14" y1="-1175.28" x2="1922.14" y2="-1175.28" xlink:href="#a"/></defs><title>openredu-logo-vertical</title><path class="a" d="M1844.73,1089a10.47,10.47,0,1,0,6.91-6.91A30.11,30.11,0,0,1,1844.73,1089Z" transform="translate(-1778.3 -1013.5)"/><path class="b" d="M1854.74,1077.09h-0.21a29.9,29.9,0,0,1-2.89,5,10.47,10.47,0,1,1-6.92,6.91,29.9,29.9,0,0,1-5,2.87v0.23a15,15,0,1,0,15-15h0Z" transform="translate(-1778.3 -1013.5)"/><path class="b" d="M1851.64,1082a29.91,29.91,0,0,0,2.88-4.95,15,15,0,0,0-14.75,14.73,29.9,29.9,0,0,0,5-2.87A10.5,10.5,0,0,1,1851.64,1082Z" transform="translate(-1778.3 -1013.5)"/><path class="c" d="M1851.64,1082a29.91,29.91,0,0,0,2.88-4.95,15,15,0,0,0-14.75,14.73,29.9,29.9,0,0,0,5-2.87A10.5,10.5,0,0,1,1851.64,1082Z" transform="translate(-1778.3 -1013.5)"/><path class="a" d="M1788.24,1085.78a18,18,0,0,0,33.88,8.31,30,30,0,0,1-24.29-24.2A18,18,0,0,0,1788.24,1085.78Z" transform="translate(-1778.3 -1013.5)"/><path class="d" d="M1822.13,1094.08a18,18,0,1,1-24.29-24.2,30.11,30.11,0,0,1-.46-5.28c0-.37,0-0.74,0-1.11a24,24,0,1,0,31.07,31l-1.16,0A30.12,30.12,0,0,1,1822.13,1094.08Z" transform="translate(-1778.3 -1013.5)"/><path class="d" d="M1806.17,1061.83a23.89,23.89,0,0,0-8.76,1.65c0,0.37,0,.74,0,1.11a30.11,30.11,0,0,0,.46,5.28,18,18,0,0,1,24.29,24.2,30.12,30.12,0,0,0,5.19.45c0.39,0,.77,0,1.16,0A24,24,0,0,0,1806.17,1061.83Z" transform="translate(-1778.3 -1013.5)"/><path class="e" d="M1806.17,1061.83a23.89,23.89,0,0,0-8.76,1.65c0,0.37,0,.74,0,1.11a30.11,30.11,0,0,0,.46,5.28,18,18,0,0,1,24.29,24.2,30.12,30.12,0,0,0,5.19.45c0.39,0,.77,0,1.16,0A24,24,0,0,0,1806.17,1061.83Z" transform="translate(-1778.3 -1013.5)"/><path class="a" d="M1857.24,1064.09a22.45,22.45,0,1,0-29.42-29.53A29.93,29.93,0,0,1,1857.24,1064.09Z" transform="translate(-1778.3 -1013.5)"/><path class="f" d="M1878.42,1043.43a29.94,29.94,0,0,0-58.82-7.87,30,30,0,0,1,7.72-1h0.51a22.45,22.45,0,1,1,29.42,29.53v0.4a30,30,0,0,1-1.06,7.87A30,30,0,0,0,1878.42,1043.43Z" transform="translate(-1778.3 -1013.5)"/><path class="f" d="M1857.24,1064.09a22.46,22.46,0,0,1-29.42-29.53h-0.51a30,30,0,0,0-7.72,1,30,30,0,0,0,36.6,36.79,30,30,0,0,0,1.06-7.87C1857.24,1064.36,1857.24,1064.23,1857.24,1064.09Z" transform="translate(-1778.3 -1013.5)"/><path class="g" d="M1857.24,1064.09a22.46,22.46,0,0,1-29.42-29.53h-0.51a30,30,0,0,0-7.72,1,30,30,0,0,0,36.6,36.79,30,30,0,0,0,1.06-7.87C1857.24,1064.36,1857.24,1064.23,1857.24,1064.09Z" transform="translate(-1778.3 -1013.5)"/><path class="h" d="M1856.21,1070.7" transform="translate(-1778.3 -1013.5)"/><path class="i" d="M1820.83,1035.32" transform="translate(-1778.3 -1013.5)"/><path class="a" d="M1806.11,1036a7.48,7.48,0,0,0-4.56,13.42,30.08,30.08,0,0,1,10.48-10.5A7.47,7.47,0,0,0,1806.11,1036Z" transform="translate(-1778.3 -1013.5)"/><path class="j" d="M1798.63,1043.43a7.48,7.48,0,0,1,13.41-4.57,29.82,29.82,0,0,1,4.11-2,12,12,0,1,0-16.59,16.58,29.82,29.82,0,0,1,2-4A7.47,7.47,0,0,1,1798.63,1043.43Z" transform="translate(-1778.3 -1013.5)"/><path class="k" d="M1818.11,1043.4a11.91,11.91,0,0,0-2-6.58,29.82,29.82,0,0,0-4.11,2,7.48,7.48,0,0,1-10.48,10.5,29.82,29.82,0,0,0-2,4A12,12,0,0,0,1818.11,1043.4Z" transform="translate(-1778.3 -1013.5)"/><path class="f" d="M1788.74,1131.53a10.36,10.36,0,0,1,10.44,10.44,10.44,10.44,0,1,1-20.87,0A10.36,10.36,0,0,1,1788.74,1131.53Zm0,19.46a8.76,8.76,0,0,0,8.66-9,8.66,8.66,0,1,0-17.33,0A8.76,8.76,0,0,0,1788.74,1151Z" transform="translate(-1778.3 -1013.5)"/><path class="f" d="M1804.46,1132.7a0.62,0.62,0,0,1,.69-0.69h0.32a0.62,0.62,0,0,1,.68.69v1.73a10.35,10.35,0,0,1-.12,1.61h0.08a7.56,7.56,0,0,1,7.25-4.51c5.4,0,8.7,4.31,8.7,10.56,0,6.41-3.75,10.56-8.95,10.56a7.7,7.7,0,0,1-7.05-4.55H1806a9,9,0,0,1,.16,1.77v9.67a0.62,0.62,0,0,1-.68.68h-0.32a0.62,0.62,0,0,1-.69-0.68V1132.7Zm8.66,18.29c3.95,0,7.17-3.26,7.17-8.91,0-5.44-2.9-8.91-7-8.91-3.71,0-7.17,2.62-7.17,8.95C1806.11,1146.6,1808.61,1151,1813.12,1151Z" transform="translate(-1778.3 -1013.5)"/><path class="f" d="M1835.86,1131.53c5.24,0,8.22,3.79,8.22,9.59a0.67,0.67,0,0,1-.73.69h-15.51c0,5.84,3.95,9.19,8.62,9.19a8.88,8.88,0,0,0,5.68-2.05,0.57,0.57,0,0,1,.93.12l0.24,0.32a0.62,0.62,0,0,1-.16.89,10.76,10.76,0,0,1-6.69,2.38,10.13,10.13,0,0,1-10.4-10.52C1826.06,1135.32,1830.7,1131.53,1835.86,1131.53Zm6.45,8.7c-0.2-4.92-3.14-7.13-6.49-7.13-3.71,0-7.13,2.42-7.86,7.13h14.35Z" transform="translate(-1778.3 -1013.5)"/><path class="f" d="M1849.36,1132.7a0.62,0.62,0,0,1,.69-0.69h0.32a0.62,0.62,0,0,1,.68.69v2.86a8.45,8.45,0,0,1-.16,1.65H1851a9.29,9.29,0,0,1,8.54-5.68c5.24,0,6.65,3.1,6.65,7.86v12.09a0.62,0.62,0,0,1-.68.69h-0.32a0.62,0.62,0,0,1-.68-0.69V1140c0-3.51-.44-6.81-5-6.81a8.63,8.63,0,0,0-8.46,8.95v9.35a0.62,0.62,0,0,1-.68.69H1850a0.62,0.62,0,0,1-.69-0.69V1132.7Z" transform="translate(-1778.3 -1013.5)"/><path class="f" d="M1782.61,1163.33a2,2,0,0,1,2.22-2.22h2.26a2,2,0,0,1,2.22,2.22v1.29a10.92,10.92,0,0,1-.08,1.29h0.08c0.68-2.14,2.9-5,5.52-5,1.41,0,1.89.77,1.89,2.22v2.26a2,2,0,0,1-2.22,2.22c-3.3,0-4.92,2.82-4.92,6.21v5.84a2,2,0,0,1-2.22,2.22h-2.54a2,2,0,0,1-2.22-2.22v-16.32Z" transform="translate(-1778.3 -1013.5)"/><path class="f" d="M1808.36,1160.63c6.17,0,9.59,4.35,9.59,9.91a2.38,2.38,0,0,1-2.34,2.3H1804.7a4.63,4.63,0,0,0,4.84,3.71,8.63,8.63,0,0,0,3.79-1c1.33-.6,2.3-0.44,3,0.85l0.56,1a2,2,0,0,1-.77,3,14.48,14.48,0,0,1-7.13,1.85c-7.42,0-11.4-5.36-11.4-10.88C1797.56,1165.38,1801.67,1160.63,1808.36,1160.63Zm2.7,8.22a2.88,2.88,0,0,0-2.86-3.1c-2,0-3,1.45-3.34,3.1h6.21Z" transform="translate(-1778.3 -1013.5)"/><path class="f" d="M1829.2,1160.63c4.19,0,5.44,2.06,5.44,2.06h0.08s0-.4,0-0.93v-6.49a2,2,0,0,1,2.22-2.22h2.54a2,2,0,0,1,2.22,2.22v24.38a2,2,0,0,1-2.22,2.22h-2.1c-1.45,0-2.22-.69-2.22-2v-0.24a2.31,2.31,0,0,1,0-.28h-0.08a6.93,6.93,0,0,1-6,3c-5.64,0-9.35-4.43-9.35-10.88S1823.68,1160.63,1829.2,1160.63Zm1.61,16c2.1,0,4.07-1.53,4.07-5.12,0-2.5-1.33-5-4.07-5-2.18,0-4.07,1.77-4.07,5S1828.4,1176.59,1830.81,1176.59Z" transform="translate(-1778.3 -1013.5)"/><path class="f" d="M1845.57,1163.33a2,2,0,0,1,2.22-2.22h2.54a2,2,0,0,1,2.22,2.22v10c0,1.93.77,2.74,2.22,2.74,3,0,4.39-2.62,4.39-5.72v-7a2,2,0,0,1,2.22-2.22h2.54a2,2,0,0,1,2.22,2.22v16.32a2,2,0,0,1-2.22,2.22h-2.26a2,2,0,0,1-2.18-2.22v-0.36c0-.2,0-0.52,0-0.52h-0.08a7.19,7.19,0,0,1-6.49,3.59c-4.11,0-7.37-1.93-7.37-7.78v-11.24Z" transform="translate(-1778.3 -1013.5)"/></svg>